<svg width="31" height="26" viewBox="0 0 31 26" fill="none" xmlns="http://www.w3.org/2000/svg">
<path d="M10.6 0.297634C14.3808 -0.163645 18.1963 -0.00127931 21.9877 0.202108C22.4887 0.186904 22.9887 0.0885096 23.49 0.145022C23.9194 0.196945 24.3041 0.427011 24.6483 0.684616C25.3416 1.21331 25.9232 1.88457 26.4173 2.61034C27.002 3.48127 27.1292 4.5857 27.7186 5.45519C28.4966 6.57368 29.7373 7.24494 30.4767 8.39699C30.9761 9.14456 31.0605 10.103 30.9661 10.9828C30.8842 11.7731 30.4831 12.4883 29.9656 13.0617C29.2743 13.8196 28.4807 14.5012 27.9647 15.4088C27.6247 16.0061 27.4939 16.7006 27.1606 17.2999C26.367 18.5256 25.2085 19.4413 23.9992 20.1969C22.2499 21.2824 20.3464 22.0587 18.5196 22.987C17.6616 23.4158 16.8372 23.9167 15.9584 24.3008C15.1471 24.6651 14.2591 24.7598 13.3967 24.9213C12.6465 25.0395 11.914 25.2495 11.1738 25.4184C9.3584 25.8246 7.4891 26.1402 5.62842 25.9362C4.35686 25.7951 3.06418 25.3215 2.1712 24.3418C1.82428 23.9379 1.5007 23.4893 1.31932 22.9795C1.21405 21.4316 1.4182 19.8871 1.61374 18.3561C1.79873 16.8822 1.91011 15.3693 1.60152 13.9042C1.30238 12.7439 0.592715 11.7568 0.235799 10.6185C-0.0439007 9.75702 -0.106396 8.78627 0.222189 7.92997C0.754091 6.92107 1.81151 6.33357 2.29841 5.29139C2.57589 4.73688 2.63061 4.10176 2.61144 3.48786C3.48165 2.58883 4.571 1.94711 5.71008 1.4844C7.27523 0.848416 8.93676 0.511349 10.6 0.297634Z" fill="#0D0D0D"/>
<path d="M8.79456 1.68954C12.6332 1.13751 16.5224 0.900412 20.3992 1.0387C21.3135 1.09748 22.2337 1.0401 23.1449 1.15123C23.916 1.25368 24.6119 1.68954 25.1117 2.26927C26.2972 3.63505 26.664 5.50751 27.8747 6.85621C27.3545 6.9108 26.8352 6.76467 26.3173 6.8341C26.1619 6.84781 26.0246 6.92591 25.9 7.01325C26.6877 6.915 27.5116 6.94383 28.2493 7.26183C29.2583 7.67193 30.0836 8.53383 30.3904 9.57657C30.6269 10.3892 30.4989 11.2878 30.0757 12.0187C29.5795 12.8803 28.7681 13.5337 27.8668 13.9452C27.9086 13.9645 27.9513 13.983 27.9939 14.0026C28.1575 13.9415 28.303 13.8455 28.4482 13.7517C28.4686 13.7932 28.509 13.8771 28.5293 13.9186C28.2971 14.0692 28.0434 14.2002 27.8719 14.4239C27.4667 14.9132 27.3401 15.5497 27.111 16.125C26.8663 16.7929 26.3978 17.3483 25.9 17.8471C24.7009 18.9965 23.2237 19.7999 21.7469 20.5417C20.6907 21.0532 19.6174 21.529 18.5564 22.0307C17.6269 22.4601 16.7603 23.0082 15.8279 23.4312C15.6211 23.5157 15.4151 23.6173 15.1899 23.6403C14.8718 23.6431 14.557 23.5521 14.238 23.5888C13.6797 23.6476 13.1604 23.8723 12.6346 24.0515C11.5454 24.4602 10.3929 24.6623 9.24522 24.8269C7.95343 24.9968 6.63989 25.0735 5.34358 24.9086C4.28461 24.7667 3.17732 24.4636 2.39892 23.6954C1.98443 23.2576 1.64029 22.6793 1.69595 22.0578C1.68211 19.562 2.35626 17.1003 2.14943 14.6002C2.06269 13.8363 1.93753 13.0466 1.52897 12.3787C1.20687 11.8169 0.746891 11.3158 0.591492 10.6745C0.441744 9.91193 0.429312 9.08362 0.781078 8.37119C1.22213 7.44686 2.22968 6.94159 2.64699 6.0013C2.87274 5.51338 2.89167 4.96668 2.85975 4.44041C3.95347 3.17513 5.48259 2.25192 7.1431 1.94819C8.27666 1.73041 9.42378 1.96751 10.5607 2.02265C12.8457 2.16962 15.0729 1.39197 17.357 1.50086C18.4081 1.56973 19.4343 1.87009 20.3848 2.31434C21.4336 2.80226 22.3798 3.47241 23.3577 4.08154C23.6707 4.26629 23.9781 4.4684 24.3197 4.60109C23.2924 3.79769 22.2371 3.01221 21.0835 2.39328C19.8719 1.74888 18.518 1.3525 17.14 1.31107C14.8565 1.23941 12.6216 1.895 10.3381 1.85497C9.82076 1.83846 9.29862 1.80991 8.79456 1.68954Z" fill="#FCFCFC"/>
<path d="M14.4532 2.12198C16.2876 1.88313 18.1978 1.97702 19.9515 2.56588C21.023 2.92415 22.0244 3.47497 22.8588 4.20161C23.1294 4.45215 23.4156 4.69578 23.6192 5.00005C22.1828 3.79148 20.4728 2.82414 18.5734 2.42705C17.4221 2.17517 16.2274 2.12889 15.0514 2.2289C14.134 2.32092 13.2633 2.66137 12.3366 2.69408C10.6359 2.79941 8.93436 2.62466 7.24732 2.4313C7.08152 2.41614 6.91656 2.38635 6.75018 2.39247C6.45803 2.52998 6.23544 2.78105 5.90496 2.84914C6.12443 2.50391 6.51822 2.2781 6.94126 2.23103C7.7845 2.13847 8.60218 2.4047 9.43207 2.48902C11.1163 2.62918 12.7922 2.35364 14.4532 2.12198Z" fill="#0D0D0D"/>
<path d="M15.7488 3.07608C17.3569 2.89041 19.0372 3.02044 20.5342 3.73577C21.2282 4.08481 21.9452 4.63768 22.1428 5.50001C21.6418 4.51508 20.6879 3.94853 19.7388 3.6352C18.2887 3.16446 16.7539 3.0984 15.254 3.18053C15.4133 3.11953 15.5808 3.08977 15.7488 3.07608Z" fill="#0D0D0D"/>
<path d="M7.16387 3.80703C8.27956 3.43394 9.49361 3.41708 10.6363 3.66876C10.8461 3.71562 11.0794 3.71704 11.2613 3.84731C11.3834 3.91445 11.2727 4.04986 11.2477 4.13985C10.2292 3.72504 9.10267 3.58249 8.01931 3.7579C7.36505 3.87874 6.69464 4.15956 6.28169 4.71664C6.10252 4.94861 6.01697 5.23229 5.90496 5.49997C5.92642 5.08459 6.07688 4.69407 6.258 4.32754C6.49624 4.06214 6.8387 3.92616 7.16387 3.80703Z" fill="#0D0D0D"/>
<path d="M15.3936 3.55682C15.5058 3.43315 15.6328 3.54136 15.7459 3.59878C15.3735 3.83604 15.095 4.23262 14.9513 4.68662C14.9306 4.95731 14.9669 5.2359 14.8921 5.49997C14.7255 5.16144 14.7556 4.75697 14.7841 4.38626C15.0205 4.14081 15.1478 3.79029 15.3936 3.55682Z" fill="#0D0D0D"/>
<path d="M10.3334 4.57365C10.404 4.54741 10.4748 4.52346 10.5465 4.50008C10.6206 4.69939 10.7076 4.8913 10.826 5.05269C10.821 5.53516 10.831 6.01762 10.821 6.50009C10.5234 6.15278 10.8047 5.60217 10.6997 5.17245C10.5859 4.96344 10.4202 4.80804 10.3334 4.57365Z" fill="#0D0D0D"/>
<path d="M17.1294 5.13927C18.3024 4.90741 19.5626 4.93304 20.669 5.46327C21.3746 5.79611 21.9829 6.45356 22.1426 7.29498C21.9536 7.45728 21.7369 7.6025 21.4892 7.60891C20.9223 7.63697 20.3979 7.33708 19.8374 7.29559C18.2845 7.15891 16.7503 7.6925 15.402 8.50005C15.0585 8.11809 14.4773 7.98294 14.307 7.4347C14.1759 7.09179 14.4172 6.7803 14.5989 6.52556C15.2416 5.7296 16.2007 5.34947 17.1294 5.13927Z" fill="#0D0D0D"/>
<path d="M15.7569 6.64869C16.3029 6.33105 16.9319 6.18364 17.5361 6C17.4597 6.30747 17.6687 6.56804 17.7142 6.86087C17.2988 6.81571 16.8856 6.92267 16.5306 7.12467C16.148 7.3304 15.7194 7.62 15.2592 7.44728C15.2145 7.10159 15.4622 6.81447 15.7569 6.64869Z" fill="#FCFCFC"/>
<path d="M7.06363 6.10612C7.93855 5.88221 8.86531 6.03745 9.70456 6.34042C10.2704 6.56404 10.8613 6.85431 11.1994 7.40023C11.5534 7.29404 11.9536 7.13448 12.3017 7.35002C12.2948 7.494 12.2998 7.66482 12.1833 7.76667C11.9057 8.05175 11.4419 8.01338 11.193 8.34347C11.1921 8.86053 11.1952 9.37759 11.1907 9.89466C10.7584 10.3927 9.94204 10.4902 9.73745 11.1957C10.0834 11.8161 10.5109 12.4837 11.2016 12.72C11.4798 12.7423 11.659 12.4771 11.8942 12.37C11.9801 12.4226 12.0657 12.4765 12.1507 12.5311C12.0158 12.8761 11.8502 13.2475 11.5246 13.4397C11.3114 13.5609 11.0595 13.4818 10.8663 13.3583C10.1918 12.9212 9.80016 12.1542 9.13289 11.7081C8.99883 11.8596 8.84831 12.0665 8.62645 12.0452C8.5144 11.8928 8.47008 11.7024 8.38953 11.5324C7.76295 11.6934 7.25205 12.3374 6.56415 12.2209C8.08126 11.593 9.26919 10.4036 10.5508 9.39548C10.5508 8.99874 10.5508 8.60142 10.5508 8.2041C9.94928 7.83159 9.23435 7.75859 8.55063 7.68906C7.66233 7.59615 6.73975 7.59384 5.90496 7.22537C6.02704 6.64627 6.52429 6.23683 7.06363 6.10612Z" fill="#0D0D0D"/>
<path d="M20.6667 6.51956C20.8224 6.47057 20.9958 6.50711 21.1146 6.71126C21.1672 6.77771 21.159 6.89978 21.159 7.00013C21.0466 6.82379 20.9003 6.83067 20.7615 6.79519C20.6841 6.78169 20.6826 6.62309 20.6667 6.51956Z" fill="#FCFCFC"/>
<path d="M6.8887 6.60983C7.23521 6.65238 7.57844 6.50376 7.92495 6.50076C8.09167 6.48878 8.24639 6.64818 8.36489 6.89987C8.07559 6.8813 7.78766 6.92744 7.49972 6.98737C7.28479 7.02392 7.03798 7.00534 6.8887 6.60983Z" fill="#FCFCFC"/>
<path d="M22.6348 6.5108C23.1431 6.41978 23.5982 6.94575 24.111 6.77923C24.026 7.5363 23.2936 7.70575 22.9437 7.24648C23.1769 7.19279 23.4896 7.35175 23.6365 6.99398C23.2849 6.9533 22.9026 6.89625 22.6348 6.5108Z" fill="#0D0D0D"/>
<path d="M3.20539 7.12777C3.6838 7.20977 4.16063 7.09571 4.63216 7.0174C4.91053 6.96349 5.21536 7.03187 5.41302 7.25914C4.5623 7.1394 3.67428 7.15444 2.86617 7.4952C2.19009 7.76389 1.57488 8.30724 1.32297 9.04749C1.09276 9.69979 1.16103 10.4276 1.35816 11.079C1.40421 11.2155 1.43622 11.3761 1.55397 11.4649C1.95909 11.7932 2.51371 11.7952 2.9175 12.1214C3.03948 12.2077 3.00694 12.366 3.00217 12.4999C2.81721 12.372 2.64337 12.2225 2.43724 12.1351C2.04853 11.9535 1.60002 11.8664 1.2899 11.5338C0.991153 10.8285 0.898275 10.0085 1.07027 9.2515C1.28778 8.2695 2.01122 7.46172 2.88442 7.1116C2.98868 7.07045 3.09902 7.12181 3.20539 7.12777Z" fill="#0D0D0D"/>
<path d="M25.5873 7.08518C25.9609 6.96871 26.3605 7.00966 26.7476 7.00008C27.4714 6.9945 28.243 7.15725 28.7894 7.64602C29.2817 8.09889 29.4726 8.77009 29.5119 9.40858C29.547 9.7729 29.4951 10.1364 29.4844 10.4999C29.4438 10.4555 29.403 10.4114 29.3624 10.3678C29.4205 9.80215 29.4052 9.23014 29.3456 8.66585C29.1075 8.10368 28.6692 7.59018 28.0724 7.3676C27.2819 7.06072 26.4146 7.17427 25.5873 7.08518Z" fill="#0D0D0D"/>
<path d="M22.6348 7.56411C22.827 7.36571 23.0387 7.66138 23.1275 7.99942C22.936 8.0129 22.7669 7.82077 22.6348 7.56411Z" fill="#0D0D0D"/>
<path d="M24.5982 7.58101C25.5395 7.38145 26.5732 7.54532 27.3649 8.13537C28.0831 8.6591 28.5834 9.54834 28.5369 10.4804C28.523 11.2751 28.0927 11.9984 27.5242 12.5001C27.2996 11.9847 27.5969 11.4737 27.761 10.9964C27.9726 10.4536 27.8556 9.83474 27.6034 9.33064C27.3547 8.82119 26.8793 8.45954 26.3574 8.31114C25.8928 8.16035 25.4007 8.18028 24.9216 8.21061C24.4346 8.7049 23.784 8.96751 23.1397 9.14952C22.2943 9.37258 21.406 9.44098 20.543 9.30388C19.9623 9.19889 19.3481 8.9803 18.9763 8.47263C18.775 8.21002 18.7103 7.8689 18.6986 7.53996C19.4526 7.65566 19.8916 8.42088 20.599 8.65464C21.2425 8.86788 21.9555 8.79472 22.5763 8.53211C23.2621 8.24273 23.8601 7.73179 24.5982 7.58101Z" fill="#0D0D0D"/>
<path d="M2.09108 8.66226C2.47864 8.33284 2.97021 8.16637 3.4443 7.99989C3.20074 8.50927 2.44931 8.44099 2.24812 8.98495C2.08663 9.47352 2.28397 10.009 2.10471 10.4999C2.05937 10.4345 2.01463 10.3701 1.96811 10.3056C1.9767 9.75547 2.06382 9.21092 2.09108 8.66226Z" fill="#0D0D0D"/>
<path d="M3.11083 8.65615C3.73528 8.39445 4.45823 8.50565 5.09616 8.67053C5.67839 8.83104 6.24743 9.06449 6.69832 9.432C6.95367 9.31104 7.16886 9.1287 7.44004 9.03213C7.59835 8.99001 7.74552 9.05319 7.87305 9.1287C7.85634 9.40298 7.74317 9.69806 7.44209 9.82647C6.84256 10.0794 6.15508 9.97312 5.51275 9.99931C5.49018 9.66339 5.30021 9.29255 4.89652 9.20317C4.07389 9.02289 3.27471 9.37987 2.4603 9.42866C2.54795 9.10841 2.7561 8.79611 3.11083 8.65615Z" fill="#0D0D0D"/>
<path d="M24.7338 9.12868C24.8242 9.00765 24.9864 9.01885 25.1203 9C25.1343 9.33358 25.1767 9.68737 25.3877 9.96167C25.8177 10.5471 26.6307 10.6758 27.0637 11.2591C26.7125 11.5787 26.2385 11.3296 25.8325 11.3045C25.6152 11.2659 25.5541 11.5255 25.4646 11.6681C25.3277 11.8899 25.3142 12.1563 25.4158 12.3943C25.5031 12.541 25.3015 12.6041 25.2318 12.6983C24.4829 13.4496 23.9794 14.3938 23.3498 15.2372C22.8549 15.9213 22.2795 16.5535 21.6061 17.0682C20.4526 17.9515 19.1707 18.6746 17.8057 19.1825C16.5202 19.668 15.1395 19.8098 13.7781 19.9182C12.2078 20.0231 10.6304 20.0308 9.06021 19.9196C7.96455 19.8303 6.86118 19.7062 5.80821 19.3798C5.38019 19.2391 4.93344 19.0735 4.62881 18.7279C4.17601 18.2236 3.93198 17.5761 3.7579 16.9332C3.40893 15.5443 3.36376 14.0859 3.5618 12.6718C3.65352 12.0033 3.98431 11.4053 4.30078 10.8198C4.45392 10.5758 4.37266 10.2737 4.46714 10.0141C4.52305 9.86386 4.70979 9.94828 4.82768 9.93708C5.10972 10.5338 4.94033 11.2198 5.14552 11.8331C6.24339 12.9172 7.78249 13.4447 9.29433 13.634C11.4801 13.8887 13.6863 13.5537 15.8102 13.0426C18.8597 12.285 21.7923 11.1261 24.6352 9.80786C24.6416 9.5811 24.5959 9.32648 24.7338 9.12868Z" fill="#0D0D0D"/>
<path d="M14.7618 10.5602C14.7809 10.1403 15.1873 9.96079 15.5115 10.007C15.9206 10.0606 16.366 10.1813 16.6634 10.5236C16.7585 10.7903 16.7254 11.0948 16.7202 11.377C16.6812 11.788 16.5581 12.2824 16.1887 12.4596C16.0139 12.5555 15.8259 12.4575 15.6545 12.4023C15.6545 12.2734 15.6302 12.1364 15.6837 12.0166C15.7843 11.7717 16.0563 11.6771 16.1339 11.4157C16.1946 11.2333 16.139 11.0419 16.1093 10.8601C15.6752 10.6719 15.186 10.7851 14.7618 10.5602Z" fill="#0D0D0D"/>
<path d="M16.781 10.4881C16.7219 10.3225 16.6716 10.076 16.8862 9.99995C16.9427 10.0156 17.0543 10.0453 17.1102 10.0613C17.035 10.1162 16.9598 10.1701 16.8843 10.2244C16.8991 10.4237 17.0511 10.5887 17.2517 10.6304C17.9861 10.8071 18.7504 10.5716 19.4882 10.7016C19.6499 10.716 19.7018 10.8595 19.6759 11C18.9956 10.6326 18.2012 10.9254 17.4717 10.858C17.2078 10.8414 16.8748 10.7629 16.781 10.4881Z" fill="#0D0D0D"/>
<path d="M1.96811 10.5001C2.00179 10.5115 2.07021 10.5347 2.10442 10.5466C2.28563 10.7465 2.68253 10.8414 2.95221 11.0001C2.71407 10.9845 2.45883 10.9608 2.27735 10.8684C2.07983 10.7765 2.01275 10.6327 1.96811 10.5001Z" fill="#0D0D0D"/>
<path d="M22.2018 11.7654C23.2008 11.4264 24.0012 10.5468 25.0948 10.5001C25.1119 11.1048 24.837 11.6938 24.3904 12.0851C23.7683 12.6402 22.9469 12.8861 22.1433 13.0001C22.34 12.6103 22.1398 12.1769 22.2018 11.7654Z" fill="#FCFCFC"/>
<path d="M29.3769 10.5001C29.426 10.556 29.4748 10.6128 29.5235 10.6687C29.4311 11.1997 29.3186 11.7284 29.1641 12.2489C28.6348 12.5171 28.1416 12.8713 27.5271 12.984C27.3699 13.0257 27.2136 12.9773 27.0632 12.94C27.6536 12.8579 28.2542 12.6625 28.6443 12.2585C29.1194 11.7686 29.3254 11.1251 29.3769 10.5001Z" fill="#0D0D0D"/>
<path d="M13.3823 11.0948C13.9948 10.9251 14.6487 10.9993 15.2473 11.1912C15.2677 11.4698 15.2467 11.7568 15.1 12.0001C14.4409 11.3966 13.5313 12.0533 12.7937 11.6974C12.8314 11.3853 13.0973 11.1675 13.3823 11.0948Z" fill="#0D0D0D"/>
<path d="M4.42841 12.4118C4.42841 12.2617 4.42841 12.1188 4.42841 12C4.42841 12.1783 4.42841 12.3552 4.42841 12.5C4.42841 12.4777 4.42841 12.4336 4.42841 12.4118Z" fill="#FCFCFC"/>
<path d="M17.2227 13.104C18.7076 12.765 20.1514 12.2914 21.6512 12C21.6419 12.5747 21.3307 13.1456 20.7738 13.4524C19.7966 14.0043 18.595 14.0629 17.5599 14.5C17.4293 14.0382 17.3628 13.5637 17.2227 13.104Z" fill="#FCFCFC"/>
<path d="M4.42973 14.2767C4.44257 13.6229 4.85627 13.0262 5.29898 12.5001C5.56717 13.3279 5.31059 14.1946 5.04197 15.0001C4.69295 14.8721 4.40651 14.6065 4.42973 14.2767Z" fill="#FCFCFC"/>
<path d="M22.9159 13.8609C23.2811 13.6525 23.6929 13.53 24.1115 13.5001C23.4048 14.0766 23.2354 15.1878 22.2999 15.5001C22.1927 15.2631 22.1025 15.002 22.1625 14.7388C22.2487 14.3419 22.5763 14.0529 22.9159 13.8609Z" fill="#FCFCFC"/>
<path d="M6.09039 15.2958C6.00876 14.715 5.64594 13.957 6.23436 13.5001C6.54351 13.7818 6.95839 13.9213 7.37616 14.0133C7.42211 14.3727 7.13353 14.655 7.01816 14.9782C6.95164 15.1592 7.0519 15.3376 7.13032 15.5001C6.79449 15.3933 6.45963 15.2195 6.09039 15.2958Z" fill="#FCFCFC"/>
<path d="M14.0685 14.0947C15.0112 13.8712 15.9555 13.6513 16.9124 13.5001C17.0482 13.9832 17.0944 14.4877 17.2225 14.9723C16.488 15.0556 15.7918 15.3388 15.0623 15.448C14.6377 15.516 14.2062 15.5093 13.7794 15.4739C13.7838 15.0446 13.7718 14.6162 13.783 14.1875C13.8627 14.1235 13.9745 14.1256 14.0685 14.0947Z" fill="#FCFCFC"/>
<path d="M7.38089 15.1816C7.73348 14.8637 7.52457 14.34 7.83431 14.0001C8.60315 14.3978 9.52575 14.1647 10.3333 14.4412C10.0501 14.7389 10.2769 15.1478 10.2316 15.5001C9.27588 15.498 8.28206 15.5256 7.38089 15.1816Z" fill="#FCFCFC"/>
<path d="M11.0135 14.2203C11.6162 14.3321 12.193 14.0017 12.7918 14.0001C12.795 14.4991 12.7925 14.9991 12.7938 15.4981C12.1428 15.4997 11.4926 15.502 10.8418 15.4971C10.7564 15.0397 11.0364 14.6713 11.0135 14.2203Z" fill="#FCFCFC"/>
<path d="M18.224 15.7797C19.2697 15.5075 20.2538 15.027 21.2061 14.5C21.1193 15.0687 21.2413 15.6852 21.6508 16.0826C20.6873 16.6798 19.8558 17.5047 18.8362 18C18.8237 17.35 18.278 16.9075 18.218 16.2737C18.1946 16.1089 18.212 15.9436 18.224 15.7797Z" fill="#FCFCFC"/>
<path d="M14.2966 16.917C15.4197 16.7824 16.4797 16.3858 17.528 15.9999C17.4997 16.3568 17.4918 16.7322 17.6658 17.0605C17.8671 17.4565 18.1476 17.8273 18.2061 18.2754C17.2215 18.5047 16.2761 18.8988 15.2586 18.9873C14.9479 19.0222 14.6348 18.9804 14.332 18.916C14.4565 18.2521 14.1865 17.5849 14.2966 16.917Z" fill="#FCFCFC"/>
<path d="M4.46749 16.9018C4.41657 16.7763 4.4239 16.6339 4.44203 16.5001C4.56136 16.85 4.76786 17.1403 4.88676 17.4905C4.94977 17.6553 4.91719 17.8406 4.86065 18.0001C4.79397 17.6003 4.59955 17.2673 4.46749 16.9018Z" fill="#FCFCFC"/>
<path d="M5.82804 17.0002C6.37587 17.5282 6.6634 18.2729 6.88889 19.0002C6.46273 18.8848 6.01418 18.8327 5.61587 18.6277C5.49661 18.5746 5.45939 18.4379 5.41278 18.3257C5.47785 18.3858 5.54141 18.4468 5.60497 18.5097C5.74147 18.4697 5.90098 18.4541 5.99783 18.3305C6.15431 17.8603 5.5408 17.4493 5.82804 17.0002Z" fill="#FCFCFC"/>
<path d="M10.8256 17.3604C11.7756 17.4453 12.7293 17.283 13.637 17.0002C13.6848 17.772 13.4598 18.5916 13.7779 19.3244C12.9378 19.6112 12.0413 19.4545 11.1743 19.4801C11.0882 18.7682 10.9195 18.0707 10.8256 17.3604Z" fill="#FCFCFC"/>
<path d="M6.8887 17.5015C7.24874 17.4785 7.54722 17.7331 7.91266 17.6804C7.89412 18.1638 8.27115 18.5415 8.36489 19C8.02392 18.9544 7.66208 18.9404 7.3654 18.7603C7.40429 18.6472 7.47279 18.5244 7.41021 18.4064C7.28943 18.08 7.0015 17.8324 6.8887 17.5015Z" fill="#FCFCFC"/>
<path d="M8.85744 17.5999C9.31364 17.4789 9.84383 17.4088 10.2433 17.747C10.6987 18.1652 10.7578 18.8798 10.8257 19.4938C10.3701 19.5152 9.90855 19.4869 9.47331 19.319C9.35104 18.7098 9.02162 18.192 8.85744 17.5999Z" fill="#FCFCFC"/>
<path d="M20.1875 19.3367C20.9676 18.9638 21.7704 18.5833 22.6348 18.5C21.2397 19.0212 19.9489 19.7886 18.6082 20.4374C16.8754 21.2811 15.0037 21.9882 13.0645 21.9008C12.3494 21.8128 11.6367 21.9672 10.9202 21.9596C9.54376 21.9427 8.15087 22.1208 6.78727 21.8405C6.2228 21.7129 5.63434 21.4868 5.26658 20.9962C5.07629 20.7605 4.97723 20.4645 4.92059 20.1662C5.41642 21.0358 6.36232 21.4518 7.26859 21.6666C8.39502 21.9171 9.55883 22.0001 10.7073 21.895C12.2472 21.8262 13.8073 21.8405 15.3154 21.4609C17.0367 21.0239 18.5995 20.1274 20.1875 19.3367Z" fill="#0D0D0D"/>
<path d="M21.6992 19.4875C22.4724 19.0927 23.2286 18.5688 24.1113 18.5C23.1525 19.1689 22.1079 19.6965 21.0574 20.1927C16.9219 22.0939 12.3866 22.9944 7.87024 22.9996C6.97132 23.0047 6.05505 22.9659 5.19086 22.6852C4.50525 22.4628 3.86454 22.0163 3.50272 21.3616C3.49197 21.0852 3.3856 20.7789 3.49059 20.5174C3.52587 20.4962 3.59641 20.4545 3.63169 20.4331C3.63885 20.7695 3.63389 21.1064 3.63527 21.4427C4.02465 21.8498 4.51627 22.137 5.03434 22.33C5.82936 22.6333 6.67591 22.7546 7.51668 22.8183C8.83804 22.9008 10.163 22.816 11.478 22.6721C15.0375 22.2846 18.507 21.1523 21.6992 19.4875Z" fill="#0D0D0D"/>
<path d="M8.85744 20.5971C9.84294 20.618 10.829 20.5588 11.8128 20.6415C12.4633 20.6449 13.1642 20.1875 13.7781 20.8998C12.7056 20.7848 11.6343 20.9947 10.5615 21C9.99287 20.9624 9.40812 20.998 8.85744 20.5971Z" fill="#0D0D0D"/>
</svg>
